<?xml version="1.0" encoding="utf-8"?>
<svg id="master-artboard" viewBox="0 0 550 385" version="1.1" xmlns="http://www.w3.org/2000/svg" x="0px" y="0px" style="enable-background:new 0 0 550 385;" width="550px" height="385px"><rect id="ee-background" x="0" y="0" width="550" height="385" style="fill: white; fill-opacity: 0; pointer-events: none;"/>

<path d="M 0 0 H 550 V 385 H 0 V 0 Z" id="color" class="st0" style="fill: rgb(255, 254, 245); fill-opacity: 0;" transform="matrix(0.9999999999999999, 0, 0, 0.9999999999999999, 1.8189894035458565e-12, 4.547473508864641e-13)"/>
<g transform="matrix(1, 0, 0, 1, 1.8189894035458565e-12, 4.618527782440651e-13)">
		<g>
			<g id="label_27_">
				<path d="M 482 266 A 57 57 0 0 1 425 323 A 57 57 0 0 1 368 266 A 57 57 0 0 1 425 209 A 57 57 0 0 1 482 266 Z" class="st1" style="fill: rgb(191, 215, 217); fill-opacity: 1;"/>
			</g>
			<g id="icon_27_">
				<g>
					<path class="st2" d="M404.2,259.3c0-6,0-21.4,0-22.2c0.9,0,40.5,0,41.4,0c0,0.7,0,16.2,0,22.2h12.9v-6v-1.5h-12v-15.6h-0.5&#10;&#9;&#9;&#9;&#9;&#9;&#9;h-42.8v15.6h-11.9v1.5v6H404.2z" style="fill: rgb(96, 81, 72); fill-opacity: 1;"/>
					<path class="st2" d="M396.8,260.7v35.1h56.3v-35.1H396.8z M427.3,275.2l-1.1-6.1c0.3,0,0.6-0.1,0.9-0.2l1.1,6.1&#10;&#9;&#9;&#9;&#9;&#9;&#9;C427.9,275.1,427.6,275.2,427.3,275.2z M411,267l5.3-3.1c0.1,0.3,0.3,0.6,0.5,0.8l-5.3,3.1C411.3,267.6,411.1,267.3,411,267z&#10;&#9;&#9;&#9;&#9;&#9;&#9; M412.5,269.4l4.7-3.9c0.2,0.3,0.4,0.5,0.6,0.7l-4.7,3.9C412.9,269.9,412.7,269.6,412.5,269.4z M414.4,271.4l3.9-4.7&#10;&#9;&#9;&#9;&#9;&#9;&#9;c0.2,0.2,0.5,0.4,0.7,0.6l-3.9,4.7C414.9,271.8,414.6,271.6,414.4,271.4z M419.7,267.7c0.3,0.2,0.5,0.3,0.8,0.5l-3.1,5.3&#10;&#9;&#9;&#9;&#9;&#9;&#9;c-0.3-0.1-0.6-0.3-0.8-0.5L419.7,267.7z M421.2,268.5c0.3,0.1,0.6,0.2,0.9,0.3l-2.1,5.8c-0.3-0.1-0.6-0.2-0.9-0.3L421.2,268.5z&#10;&#9;&#9;&#9;&#9;&#9;&#9; M421.8,275.1l1.1-6.1c0.3,0.1,0.6,0.1,0.9,0.2l-1.1,6.1C422.4,275.2,422.1,275.1,421.8,275.1z M424.5,269.3c0.2,0,0.3,0,0.5,0&#10;&#9;&#9;&#9;&#9;&#9;&#9;c0.2,0,0.3,0,0.5,0v6.1c-0.2,0-0.3,0-0.5,0c-0.2,0-0.3,0-0.5,0V269.3z M427.9,268.8c0.3-0.1,0.6-0.2,0.9-0.3l2.1,5.8&#10;&#9;&#9;&#9;&#9;&#9;&#9;c-0.3,0.1-0.6,0.2-0.9,0.3L427.9,268.8z M431.5,279.2c0.9,0,1.6,0.7,1.6,1.6c0,0.9-0.7,1.6-1.6,1.6c-0.9,0-1.6-0.7-1.6-1.6&#10;&#9;&#9;&#9;&#9;&#9;&#9;C430,279.9,430.7,279.2,431.5,279.2z M429.4,268.2c0.3-0.1,0.6-0.3,0.8-0.5l3.1,5.3c-0.3,0.2-0.5,0.3-0.8,0.5L429.4,268.2z&#10;&#9;&#9;&#9;&#9;&#9;&#9; M430.9,267.3c0.2-0.2,0.5-0.4,0.7-0.6l4,4.7c-0.2,0.2-0.5,0.4-0.7,0.6L430.9,267.3z M432.1,266.1c0.2-0.2,0.4-0.5,0.6-0.7&#10;&#9;&#9;&#9;&#9;&#9;&#9;l4.7,3.9c-0.2,0.2-0.4,0.5-0.6,0.7L432.1,266.1z M433.2,264.8c0.2-0.3,0.3-0.5,0.5-0.8l5.3,3.1c-0.2,0.3-0.3,0.6-0.5,0.8&#10;&#9;&#9;&#9;&#9;&#9;&#9;L433.2,264.8z M405.2,291.5c-0.9,0-1.6-0.7-1.6-1.6c0-0.9,0.7-1.6,1.6-1.6c0.9,0,1.6,0.7,1.6,1.6&#10;&#9;&#9;&#9;&#9;&#9;&#9;C406.8,290.8,406.1,291.5,405.2,291.5z M405.2,282.3c-0.9,0-1.6-0.7-1.6-1.6c0-0.9,0.7-1.6,1.6-1.6c0.9,0,1.6,0.7,1.6,1.6&#10;&#9;&#9;&#9;&#9;&#9;&#9;C406.8,281.6,406.1,282.3,405.2,282.3z M408.5,287c-0.9,0-1.6-0.7-1.6-1.6c0-0.9,0.7-1.6,1.6-1.6c0.9,0,1.6,0.7,1.6,1.6&#10;&#9;&#9;&#9;&#9;&#9;&#9;C410.1,286.3,409.4,287,408.5,287z M411.8,291.5c-0.9,0-1.6-0.7-1.6-1.6c0-0.9,0.7-1.6,1.6-1.6c0.9,0,1.6,0.7,1.6,1.6&#10;&#9;&#9;&#9;&#9;&#9;&#9;C413.4,290.8,412.7,291.5,411.8,291.5z M411.8,282.3c-0.9,0-1.6-0.7-1.6-1.6c0-0.9,0.7-1.6,1.6-1.6c0.9,0,1.6,0.7,1.6,1.6&#10;&#9;&#9;&#9;&#9;&#9;&#9;C413.4,281.6,412.7,282.3,411.8,282.3z M415.1,287c-0.9,0-1.6-0.7-1.6-1.6c0-0.9,0.7-1.6,1.6-1.6c0.9,0,1.6,0.7,1.6,1.6&#10;&#9;&#9;&#9;&#9;&#9;&#9;C416.7,286.3,416,287,415.1,287z M418.4,291.5c-0.9,0-1.6-0.7-1.6-1.6c0-0.9,0.7-1.6,1.6-1.6c0.9,0,1.6,0.7,1.6,1.6&#10;&#9;&#9;&#9;&#9;&#9;&#9;C420,290.8,419.3,291.5,418.4,291.5z M418.4,282.3c-0.9,0-1.6-0.7-1.6-1.6c0-0.9,0.7-1.6,1.6-1.6c0.9,0,1.6,0.7,1.6,1.6&#10;&#9;&#9;&#9;&#9;&#9;&#9;C420,281.6,419.3,282.3,418.4,282.3z M421.7,287c-0.9,0-1.6-0.7-1.6-1.6c0-0.9,0.7-1.6,1.6-1.6c0.9,0,1.6,0.7,1.6,1.6&#10;&#9;&#9;&#9;&#9;&#9;&#9;C423.3,286.3,422.6,287,421.7,287z M425,291.5c-0.9,0-1.6-0.7-1.6-1.6c0-0.9,0.7-1.6,1.6-1.6c0.9,0,1.6,0.7,1.6,1.6&#10;&#9;&#9;&#9;&#9;&#9;&#9;C426.6,290.8,425.8,291.5,425,291.5z M425,282.3c-0.9,0-1.6-0.7-1.6-1.6c0-0.9,0.7-1.6,1.6-1.6c0.9,0,1.6,0.7,1.6,1.6&#10;&#9;&#9;&#9;&#9;&#9;&#9;C426.6,281.6,425.8,282.3,425,282.3z M428.3,287c-0.9,0-1.6-0.7-1.6-1.6c0-0.9,0.7-1.6,1.6-1.6c0.9,0,1.6,0.7,1.6,1.6&#10;&#9;&#9;&#9;&#9;&#9;&#9;C429.9,286.3,429.2,287,428.3,287z M431.5,291.5c-0.9,0-1.6-0.7-1.6-1.6c0-0.9,0.7-1.6,1.6-1.6c0.9,0,1.6,0.7,1.6,1.6&#10;&#9;&#9;&#9;&#9;&#9;&#9;C433.1,290.8,432.4,291.5,431.5,291.5z M434.9,287c-0.9,0-1.6-0.7-1.6-1.6c0-0.9,0.7-1.6,1.6-1.6c0.9,0,1.6,0.7,1.6,1.6&#10;&#9;&#9;&#9;&#9;&#9;&#9;C436.5,286.3,435.8,287,434.9,287z M438.1,291.5c-0.9,0-1.6-0.7-1.6-1.6c0-0.9,0.7-1.6,1.6-1.6c0.9,0,1.6,0.7,1.6,1.6&#10;&#9;&#9;&#9;&#9;&#9;&#9;C439.7,290.8,439,291.5,438.1,291.5z M438.1,282.3c-0.9,0-1.6-0.7-1.6-1.6c0-0.9,0.7-1.6,1.6-1.6c0.9,0,1.6,0.7,1.6,1.6&#10;&#9;&#9;&#9;&#9;&#9;&#9;C439.7,281.6,439,282.3,438.1,282.3z M441.5,287c-0.9,0-1.6-0.7-1.6-1.6c0-0.9,0.7-1.6,1.6-1.6c0.9,0,1.6,0.7,1.6,1.6&#10;&#9;&#9;&#9;&#9;&#9;&#9;C443.1,286.3,442.4,287,441.5,287z M444.7,291.5c-0.9,0-1.6-0.7-1.6-1.6c0-0.9,0.7-1.6,1.6-1.6c0.9,0,1.6,0.7,1.6,1.6&#10;&#9;&#9;&#9;&#9;&#9;&#9;C446.3,290.8,445.6,291.5,444.7,291.5z M444.7,282.3c-0.9,0-1.6-0.7-1.6-1.6c0-0.9,0.7-1.6,1.6-1.6c0.9,0,1.6,0.7,1.6,1.6&#10;&#9;&#9;&#9;&#9;&#9;&#9;C446.3,281.6,445.6,282.3,444.7,282.3z" style="fill: rgb(96, 81, 72); fill-opacity: 1;"/>
				</g>
			</g>
		</g>
		<g>
			<g id="label_9_">
				<path d="M 332 266 A 57 57 0 0 1 275 323 A 57 57 0 0 1 218 266 A 57 57 0 0 1 275 209 A 57 57 0 0 1 332 266 Z" class="st3" style="fill: rgb(255, 230, 230); fill-opacity: 1;"/>
			</g>
			<g id="icon_9_">
				<path class="st2" d="M304.4,246.9c0-0.3,0.1-0.7,0.1-1.1c-0.5-2-2.2-3.7-3.9-5.1c-1.4-1-2.8-2-4.4-2.4c-0.6-0.2-1.3,0-1.9,0.2&#10;&#9;&#9;&#9;&#9;&#9;l-17.6,21.3l-0.1-0.1v-20.9h-31.2l0,43.2l10.1,0v11.6h48.5v-27.1l-16,0l0.1-0.1L304.4,246.9z M301.2,244.9&#10;&#9;&#9;&#9;&#9;&#9;c-1.5-0.7-3.1-2-4.3-3.5C298.5,242.2,300,243.4,301.2,244.9z M294.5,242.5c1.6,2.2,3.9,3.9,6.1,5.1c-0.3,1.3-1.3,0.1-1.9,0.1&#10;&#9;&#9;&#9;&#9;&#9;c-1.8-1.1-3.7-2.7-4.8-4.5L294.5,242.5z M292.2,245.2c1.6,2.2,3.8,3.9,6.1,5c-0.1,0.2-0.3,0.5-0.5,0.7c-2.4-0.8-4.7-2.8-6.1-5&#10;&#9;&#9;&#9;&#9;&#9;L292.2,245.2z M278.7,271.9c-1.6,1.1-3.3,2-5,3.1l-1.1-0.9c0.6-1.9,1.3-3.7,2-5.5C275.6,270.1,277.2,271.3,278.7,271.9z&#10;&#9;&#9;&#9;&#9;&#9; M255.6,269.2v4.7h-5.4l0,2.5l5.4,0.1v3h-7.5v-38h26l-0.1,20.9c-0.6,1.3-1,2.8-1.5,4.2l-22.4,0.1l0,2.6L255.6,269.2z&#10;&#9;&#9;&#9;&#9;&#9; M301.5,269.2v22h-43.3v-22h13.4l-4.4,12.2l-5.4,0.1l-0.1,2.4l9.2,0.1l0-2.4l-2.8-0.1l15.1-9.1l2.8-3.1H301.5z M282,269.9&#10;&#9;&#9;&#9;&#9;&#9;c-2.5,0.1-4.8-1.6-5.8-3.9c-0.1-0.4-0.3-0.7-0.3-1.2l8.3-10.1l5.6-6.8c1.6,2.2,3.9,3.9,6.1,5L282,269.9z" style="fill: rgb(173, 195, 197); fill-opacity: 1; stroke: rgb(46, 71, 36); stroke-width: 0; stroke-opacity: 0.22;"/>
				<path d="M 250.199997 244.899994 H 263.299997 V 247.399994 H 250.199997 V 244.899994 Z" class="st2" style="fill: rgb(173, 195, 197); fill-opacity: 1; stroke: rgb(46, 71, 36); stroke-width: 0; stroke-opacity: 0.22;"/>
				<path d="M 250.199997 252.100006 H 272.199997 V 254.600006 H 250.199997 V 252.100006 Z" class="st2" style="fill: rgb(173, 195, 197); fill-opacity: 1; stroke: rgb(46, 71, 36); stroke-width: 0; stroke-opacity: 0.22;"/>
				<path d="M 250.199997 259.399994 H 272.199997 V 261.899994 H 250.199997 V 259.399994 Z" class="st2" style="fill: rgb(173, 195, 197); fill-opacity: 1; stroke: rgb(46, 71, 36); stroke-width: 0; stroke-opacity: 0.22;"/>
				<path d="M 292.700012 271.700012 H 298.600012 V 277.600012 H 292.700012 V 271.700012 Z" class="st2" style="fill: rgb(173, 195, 197); fill-opacity: 1; stroke: rgb(46, 71, 36); stroke-width: 0; stroke-opacity: 0.22;"/>
				<path d="M 261.899994 286.5 H 277.699994 V 288.9 H 261.899994 V 286.5 Z" class="st2" style="fill: rgb(173, 195, 197); fill-opacity: 1; stroke: rgb(46, 71, 36); stroke-width: 0; stroke-opacity: 0.22;"/>
			</g>
		</g>
		<g>
			<g id="label_24_">
				<path d="M 182 266 A 57 57 0 0 1 125 323 A 57 57 0 0 1 68 266 A 57 57 0 0 1 125 209 A 57 57 0 0 1 182 266 Z" class="st4" style="fill: rgb(254, 221, 121); fill-opacity: 1;"/>
			</g>
			<path id="icon_24_" class="st5" d="M106.6,232.4h36.7v67.2h-36.7V232.4L106.6,232.4z M109,234.5v25.7h32v-25.7H109L109,234.5z&#10;&#9;&#9;&#9;&#9; M111,236v22.1H139V236H111L111,236z M120.6,241.4c-0.7,0-1.3,0.6-1.3,1.3l0,0c0,0.7,0.6,1.3,1.3,1.3h9c0.7,0,1.3-0.6,1.3-1.3&#10;&#9;&#9;&#9;&#9;l0,0c0-0.7-0.6-1.3-1.3-1.3H120.6L120.6,241.4z M109,264.6v25.7h32v-25.7H109L109,264.6z M111,266.2v22.1H139v-22.1H111&#10;&#9;&#9;&#9;&#9;L111,266.2z M120.6,271.5c-0.7,0-1.3,0.6-1.3,1.3l0,0c0,0.7,0.6,1.3,1.3,1.3h9c0.7,0,1.3-0.6,1.3-1.3l0,0c0-0.7-0.6-1.3-1.3-1.3&#10;&#9;&#9;&#9;&#9;H120.6L120.6,271.5z" style="fill-rule: evenodd; clip-rule: evenodd; fill: rgb(96, 81, 72); fill-opacity: 1;"/>
		</g>
		<g>
			<g id="label_10_">
				<path d="M 482 119 A 57 57 0 0 1 425 176 A 57 57 0 0 1 368 119 A 57 57 0 0 1 425 62 A 57 57 0 0 1 482 119 Z" class="st4" style="fill: rgb(255, 230, 230); fill-opacity: 1;"/>
			</g>
			<g id="icon_10_">
				<path d="M 398.100006 95.400002 H 409.300006 V 97.800002 H 398.100006 V 95.400002 Z" class="st2" style="fill: rgb(96, 81, 72); fill-opacity: 1;"/>
				<path d="M 398.100006 102.699997 H 421.500006 V 105.099997 H 398.100006 V 102.699997 Z" class="st2" style="fill: rgb(96, 81, 72); fill-opacity: 1;"/>
				<path class="st2" d="M430.8,99.1l-0.5,0.4V87.1H394V135h11.5v15.9H456v-32.6L430.8,99.1z M430.8,102.2l20.5,15.8h-41&#10;&#9;&#9;&#9;&#9;&#9;L430.8,102.2z M452.1,120.4L440,133.6l-1.8-1.7c-0.2-0.2-0.5-0.3-0.8-0.3h-13.2c-0.3,0-0.6,0.1-0.8,0.3l-1.8,1.7l-12.1-13.2&#10;&#9;&#9;&#9;&#9;&#9;H452.1z M405.5,132.6h-9.1V89.5h31.6v11.8l-10.5,8.1h-19.3v2.4h16.2l-5.5,4.2h-10.7v2.4l7.4,0.1v4.1h-7.4v2.4h7.4V132.6z&#10;&#9;&#9;&#9;&#9;&#9; M407.9,122.3l11.9,13l-11.9,11.5V122.3z M409.7,148.4l14.9-14.5h12.3l14.9,14.5H409.7z M453.6,146.8l-11.9-11.5l11.9-13V146.8z&#10;&#9;&#9;&#9;&#9;&#9;" style="fill: rgb(96, 81, 72); fill-opacity: 1;"/>
			</g>
		</g>
		<g>
			<g id="label_26_">
				<path d="M 332 119 A 57 57 0 0 1 275 176 A 57 57 0 0 1 218 119 A 57 57 0 0 1 275 62 A 57 57 0 0 1 332 119 Z" class="st1" style="fill: rgb(235, 134, 93); fill-opacity: 1;"/>
			</g>
			<g id="icon_26_">
				<path class="st2" d="M250.7,96.8l10.3-6.3c0-1.1,0-1.8,0-2.1c-1.4,0.9-10,6.1-13.7,8.4H250.7z" style="fill: rgb(96, 81, 72); fill-opacity: 1;"/>
				<path class="st2" d="M253.3,96.8h1L267,89c0-0.3,0-0.5,0-0.6C265.5,89.3,257,94.5,253.3,96.8z" style="fill: rgb(96, 81, 72); fill-opacity: 1;"/>
				<path class="st2" d="M256.9,96.8h0.6l13.1-8.1c0-0.2,0-0.3,0-0.4C269.1,89.3,260.6,94.5,256.9,96.8z" style="fill: rgb(96, 81, 72); fill-opacity: 1;"/>
				<path class="st2" d="M260.1,96.8h1l12.7-7.8c0-0.3,0-0.5,0-0.6C272.3,89.3,263.8,94.5,260.1,96.8z" style="fill: rgb(96, 81, 72); fill-opacity: 1;"/>
				<path class="st2" d="M263.6,96.8h6.4h0.7v12.5l0.2-0.1v-12l6.4-3.9c0-2.6,0-4.4,0-4.8C275.9,89.3,267.4,94.5,263.6,96.8z" style="fill: rgb(96, 81, 72); fill-opacity: 1;"/>
				<path class="st2" d="M268.9,145.2v-34.9v-0.3h0.4c0-6.5,0-11.5,0-11.9c-1.2,0-22.5,0-23.7,0c0,3.8,0,44.3,0,46.5&#10;&#9;&#9;&#9;&#9;&#9;c0,0.3,0,0.5,0,0.5C246.8,145.2,265.8,145.2,268.9,145.2z M256.1,139.4c-3,0-5.5-2.4-5.5-5.4c0-3,2.4-5.4,5.5-5.4&#10;&#9;&#9;&#9;&#9;&#9;c3,0,5.5,2.4,5.5,5.4C261.5,137,259.1,139.4,256.1,139.4z M248.9,101.9H266v5.2h-17.1V101.9z M248.9,110.5H266v1.3h-17.1V110.5z&#10;&#9;&#9;&#9;&#9;&#9; M248.9,113.3H266v1.3h-17.1V113.3z M248.9,116.1H266v1.3h-17.1V116.1z M248.9,118.9H266v1.3h-17.1V118.9z M248.9,121.7H266v1.3&#10;&#9;&#9;&#9;&#9;&#9;h-17.1V121.7z M248.9,124.4H266v1.3h-17.1V124.4z" style="fill: rgb(96, 81, 72); fill-opacity: 1;"/>
				<path class="st2" d="M256.1,138.1c2.3,0,4.1-1.8,4.1-4.1c0-2.3-1.8-4.1-4.1-4.1c-2.3,0-4.1,1.8-4.1,4.1&#10;&#9;&#9;&#9;&#9;&#9;C252,136.3,253.8,138.1,256.1,138.1z" style="fill: rgb(96, 81, 72); fill-opacity: 1;"/>
				<path class="st2" d="M272.3,97.9c0,0.2,0,4.5,0,10.4l10.6-6.6l1-0.6v3l3.7-2.3c0-7.1,0-12.7,0-13.4&#10;&#9;&#9;&#9;&#9;&#9;C285.9,89.5,272.9,97.5,272.3,97.9z" style="fill: rgb(96, 81, 72); fill-opacity: 1;"/>
				<path class="st2" d="M282.6,105c0-0.7,0-1.2,0-1.4c-1.3,0.8-7.5,4.6-10.6,6.5h2.3L282.6,105z" style="fill: rgb(96, 81, 72); fill-opacity: 1;"/>
				<path class="st2" d="M287.5,103.7c0-0.1,0-0.2,0-0.2c-1.3,0.8-7.5,4.6-10.6,6.5h0.4L287.5,103.7z" style="fill: rgb(96, 81, 72); fill-opacity: 1;"/>
				<path class="st2" d="M279.8,110.1L279.8,110.1l10.6-6.5c0,0,0,0,0,0C289.1,104.4,282.9,108.2,279.8,110.1z" style="fill: rgb(96, 81, 72); fill-opacity: 1;"/>
				<path class="st2" d="M282.4,110.1h0.3l10.2-6.3c0-0.1,0-0.2,0-0.2C291.7,104.4,285.5,108.2,282.4,110.1z" style="fill: rgb(96, 81, 72); fill-opacity: 1;"/>
				<path class="st2" d="M285.3,110.1h4.8h0.7v0.3l5.1-3.2c0-1.9,0-3.2,0-3.6C294.6,104.4,288.4,108.2,285.3,110.1z" style="fill: rgb(96, 81, 72); fill-opacity: 1;"/>
				<path class="st2" d="M289.4,149.6c0-1.3,0-36.9,0-38.2c-1.2,0-17.9,0-19.1,0c0,3.4,0,35.5,0,37.6c0,0.3,0,0.5,0,0.5&#10;&#9;&#9;&#9;&#9;&#9;C271.5,149.6,288.2,149.6,289.4,149.6z M278.7,136c2.5,0,4.6,2,4.6,4.6c0,2.5-2.1,4.6-4.6,4.6c-2.5,0-4.6-2-4.6-4.6&#10;&#9;&#9;&#9;&#9;&#9;C274.1,138,276.2,136,278.7,136z M272.9,114.3h14v4.2h-14V114.3z M272.9,121.4h14v1.1h-14V121.4z M272.9,123.7h14v1.1h-14V123.7&#10;&#9;&#9;&#9;&#9;&#9;z M272.9,125.9h14v1.1h-14V125.9z M272.9,128.2h14v1.1h-14V128.2z M272.9,130.5h14v1.1h-14V130.5z M272.9,132.7h14v1.1h-14&#10;&#9;&#9;&#9;&#9;&#9;V132.7z" style="fill: rgb(96, 81, 72); fill-opacity: 1;"/>
				<path class="st2" d="M275.5,140.6c0,1.8,1.4,3.2,3.2,3.2c1.8,0,3.2-1.4,3.2-3.2c0-1.8-1.4-3.2-3.2-3.2&#10;&#9;&#9;&#9;&#9;&#9;C277,137.3,275.5,138.8,275.5,140.6z" style="fill: rgb(96, 81, 72); fill-opacity: 1;"/>
				<path class="st2" d="M292.1,111.1c0,0.7,0,35.7,0,37.9c1.7-1.1,11.7-7.2,12.3-7.6c0-0.7,0-35.7,0-37.9&#10;&#9;&#9;&#9;&#9;&#9;C302.7,104.6,292.6,110.8,292.1,111.1z" style="fill: rgb(96, 81, 72); fill-opacity: 1;"/>
			</g>
		</g>
		<g>
			<g id="label_28_">
				<path d="M 182 119 A 57 57 0 0 1 125 176 A 57 57 0 0 1 68 119 A 57 57 0 0 1 125 62 A 57 57 0 0 1 182 119 Z" class="st3" style="fill: rgb(188, 234, 221); fill-opacity: 1;"/>
			</g>
			<g id="icon_28_">
				<path d="M 93.099998 111.800003 H 105.099998 V 149.100002 H 93.099998 V 111.800003 Z" class="st2" style="fill: rgb(96, 81, 72); fill-opacity: 1;"/>
				<g>
					<path class="st2" d="M143.5,140.8c-0.6,0-1,0.5-1,1c0,0.6,0.4,1,1,1c0.6,0,1-0.4,1-1C144.5,141.2,144,140.8,143.5,140.8z" style="fill: rgb(96, 81, 72); fill-opacity: 1;"/>
					<path d="M 150.300003 141.800003 A 1 1 0 0 1 149.300003 142.800003 A 1 1 0 0 1 148.300003 141.800003 A 1 1 0 0 1 149.300003 140.800003 A 1 1 0 0 1 150.300003 141.800003 Z" class="st2" style="fill: rgb(96, 81, 72); fill-opacity: 1;"/>
					<path class="st2" d="M145.5,111.8v-1.4h5.6v-8.5h-5.6V88.9h-0.7h-27.2v12.9H112v8.5h5.6v1.4h-11v37.3h50.4v-37.3H145.5z&#10;&#9;&#9;&#9;&#9;&#9;&#9; M119,90.4c1.3,0,23.8,0,25.1,0c0,1.3,0,25.3,0,26.6c-1.3,0-23.8,0-25.1,0C119,115.7,119,91.7,119,90.4z M115.1,143.9h-2.9&#10;&#9;&#9;&#9;&#9;&#9;&#9;v-2.9h2.9V143.9z M115.1,138.6h-2.9v-2.9h2.9V138.6z M115.1,133.3h-2.9v-2.9h2.9V133.3z M120.3,143.9h-2.9v-2.9h2.9V143.9z&#10;&#9;&#9;&#9;&#9;&#9;&#9; M120.3,138.6h-2.9v-2.9h2.9V138.6z M120.3,133.3h-2.9v-2.9h2.9V133.3z M125.6,143.9h-2.9v-2.9h2.9V143.9z M125.6,138.6h-2.9&#10;&#9;&#9;&#9;&#9;&#9;&#9;v-2.9h2.9V138.6z M125.6,133.3h-2.9v-2.9h2.9V133.3z M143.5,143.7c-1.1,0-2-0.9-2-2c0-1.1,0.9-2,2-2c1.1,0,2,0.9,2,2&#10;&#9;&#9;&#9;&#9;&#9;&#9;C145.4,142.8,144.5,143.7,143.5,143.7z M149.3,143.7c-1.1,0-2-0.9-2-2c0-1.1,0.9-2,2-2c1.1,0,2,0.9,2,2&#10;&#9;&#9;&#9;&#9;&#9;&#9;C151.2,142.8,150.3,143.7,149.3,143.7z M151.2,135.7h-13.1V134h13.1V135.7z M151.2,132h-13.1v-1.7h13.1V132z M151.2,125.9&#10;&#9;&#9;&#9;&#9;&#9;&#9;h-39.1v-3.4h39.1V125.9z" style="fill: rgb(96, 81, 72); fill-opacity: 1;"/>
				</g>
			</g>
		</g>
	</g>
</svg>